# xmcd CD database file
# Copyright (C) 1996 Ti Kan
#
# Track frame offsets:
#	150
#	13383
#	29408
#	50603
#	61943
#	78068
#	93855
#	105900
#	117450
#	132450
#	153000
#	180600
#	194475
#	207075
#	216375
#	230963
#	243000
#	257025
#	268838
#	285225
#
# Disc length: 4010 seconds
#
# Revision: 1
# Processed by: cddbd v1.4b41PL1 Copyright (c) Steve Scherf et al.
# Submitted via: EasyCD 2.21 - (C) 1996 Greg Leichner
#
DISCID=190fa814
DTITLE=Lightning Hopkins - Lightnin'!
DYEAR=1900
DGENRE=
TTITLE0=Mojo Hand
TTITLE1=Rock Me Baby
TTITLE2=Hello Central
TTITLE3=Ain't It Crazy
TTITLE4=Little and Low
TTITLE5=Hold Up Your Head
TTITLE6=Good Times Here, Better Down the Road
TTITLE7=Annie's Boogie
TTITLE8=My Starter Won't Start This Morning
TTITLE9=One Kind Favor I Ask Of You
TTITLE10=Little Girl
TTITLE11=Baby Please Don't Go
TTITLE12=What'd I Say?
TTITLE13=I Hear You Calling Me
TTITLE14=Trouble In Mind
TTITLE15=Come On Baby
TTITLE16=At Home Blues
TTITLE17=Take A Walk
TTITLE18=Little Antoinette
TTITLE19=Cut Me Out Baby
EXTD=
EXTT0=
EXTT1=
EXTT2=
EXTT3=
EXTT4=
EXTT5=
EXTT6=
EXTT7=
EXTT8=
EXTT9=
EXTT10=
EXTT11=
EXTT12=
EXTT13=
EXTT14=
EXTT15=
EXTT16=
EXTT17=
EXTT18=
EXTT19=
PLAYORDER=
